<svg width="430" height="255" viewBox="0 0 430 255" fill="none" xmlns="http://www.w3.org/2000/svg">
<path d="M170.066 223.6L142.997 131.816H170.783L183.331 188.285H184.048L198.927 131.816H220.798L235.677 188.464H236.394L248.942 131.816H276.728L249.659 223.6H225.817L210.221 172.33H209.504L193.908 223.6H170.066ZM309.713 131.816V223.6H284.795V131.816H309.713ZM321.522 223.6V131.816H386.057V151.894H346.44V167.669H382.114V187.747H346.44V223.6H321.522ZM420.14 131.816V223.6H395.222V131.816H420.14Z" fill="white"/>
<path d="M97.4851 225.034C90.9121 225.034 85.2503 223.869 80.4998 221.538C75.7493 219.208 72.1042 216.086 69.5647 212.172C67.0251 208.258 65.7553 203.941 65.7553 199.22C65.7553 195.784 66.4126 192.752 67.7272 190.122C69.0418 187.463 70.8793 185.028 73.2396 182.817C75.5999 180.606 78.3636 178.425 81.5306 176.274L102.325 163.367C104.417 162.052 105.836 160.693 106.583 159.289C107.33 157.855 107.703 156.585 107.703 155.479C107.703 154.015 107.165 152.716 106.09 151.58C105.014 150.445 103.341 149.892 101.07 149.922C99.6662 149.922 98.4562 150.191 97.4403 150.729C96.4245 151.237 95.6327 151.954 95.0651 152.88C94.5273 153.806 94.2584 154.912 94.2584 156.196C94.2584 157.959 94.7663 159.767 95.7821 161.619C96.798 163.442 98.1873 165.414 99.95 167.535C101.713 169.656 103.7 172.032 105.911 174.661L150.368 223.6H125.63L88.3426 184.162C86.5201 182.22 84.5034 179.844 82.2925 177.036C80.0815 174.198 78.1694 171.001 76.556 167.445C74.9725 163.89 74.1807 160.021 74.1807 155.838C74.1807 151.177 75.3011 146.92 77.5419 143.065C79.7828 139.211 82.9199 136.134 86.9533 133.833C90.9868 131.533 95.6925 130.382 101.07 130.382C106.209 130.382 110.631 131.443 114.336 133.564C118.071 135.686 120.939 138.509 122.941 142.035C124.972 145.56 125.988 149.444 125.988 153.687C125.988 157.959 124.928 161.948 122.806 165.653C120.715 169.357 117.712 172.599 113.798 175.378L94.7962 188.823C93.3322 189.838 92.0624 191.004 90.9868 192.318C89.9411 193.633 89.4182 195.336 89.4182 197.427C89.4182 199.16 89.8216 200.639 90.6283 201.864C91.435 203.089 92.5703 204.03 94.0343 204.688C95.5282 205.345 97.276 205.674 99.2778 205.674C102.325 205.674 105.373 204.942 108.42 203.478C111.498 201.984 114.306 199.907 116.846 197.248C119.385 194.559 121.417 191.392 122.941 187.747C124.494 184.072 125.271 180.069 125.271 175.736H144.811C144.811 181.055 144.258 186.178 143.153 191.108C142.047 196.038 140.27 200.55 137.82 204.643C135.37 208.736 132.143 212.187 128.139 214.995C126.885 215.623 125.66 216.22 124.464 216.788C123.269 217.356 122.044 217.953 120.79 218.581C117.115 220.941 113.275 222.614 109.272 223.6C105.268 224.556 101.339 225.034 97.4851 225.034Z" fill="white"/>
<path d="M92.1043 64.6353H66.8279C66.6487 62.5439 66.1706 60.6467 65.3938 58.9436C64.6469 57.2406 63.6012 55.7766 62.2567 54.5516C60.9421 53.2968 59.3436 52.3407 57.4614 51.6834C55.5791 50.9962 53.4428 50.6526 51.0526 50.6526C46.8698 50.6526 43.3293 51.6685 40.4312 53.7001C37.563 55.7318 35.3819 58.6449 33.8881 62.4393C32.4241 66.2337 31.6921 70.79 31.6921 76.1082C31.6921 81.7252 32.439 86.4309 33.9329 90.2253C35.4566 93.9899 37.6526 96.8282 40.5208 98.7404C43.3891 100.623 46.8399 101.564 50.8734 101.564C53.1739 101.564 55.2355 101.28 57.058 100.712C58.8805 100.115 60.464 99.2633 61.8085 98.1578C63.153 97.0523 64.2435 95.7228 65.0801 94.1692C65.9466 92.5856 66.5292 90.8079 66.8279 88.836L92.1043 89.0153C91.8055 92.8994 90.715 96.8581 88.8327 100.892C86.9504 104.895 84.2764 108.6 80.8106 112.006C77.3747 115.382 73.1171 118.101 68.038 120.163C62.9588 122.224 57.058 123.255 50.3356 123.255C41.9101 123.255 34.3512 121.447 27.6586 117.832C20.9959 114.217 15.7226 108.899 11.8385 101.878C7.9843 94.8563 6.05721 86.2666 6.05721 76.1082C6.05721 65.8901 8.02912 57.2854 11.9729 50.2941C15.9168 43.2729 21.235 37.9697 27.9275 34.3844C34.62 30.7692 42.0894 28.9616 50.3356 28.9616C56.1318 28.9616 61.4649 29.7534 66.335 31.3369C71.205 32.9204 75.4775 35.2359 79.1524 38.2834C82.8273 41.301 85.7852 45.0207 88.026 49.4426C90.2668 53.8645 91.6262 58.9287 92.1043 64.6353ZM136.932 123.255C129.462 123.255 123.069 121.776 117.75 118.818C112.432 115.83 108.354 111.677 105.516 106.359C102.677 101.011 101.258 94.8115 101.258 87.7604C101.258 80.7094 102.677 74.5247 105.516 69.2065C108.354 63.8585 112.432 59.7055 117.75 56.7476C123.069 53.7599 129.462 52.266 136.932 52.266C144.401 52.266 150.795 53.7599 156.113 56.7476C161.431 59.7055 165.509 63.8585 168.348 69.2065C171.186 74.5247 172.605 80.7094 172.605 87.7604C172.605 94.8115 171.186 101.011 168.348 106.359C165.509 111.677 161.431 115.83 156.113 118.818C150.795 121.776 144.401 123.255 136.932 123.255ZM137.111 104.97C139.202 104.97 141.01 104.268 142.534 102.863C144.057 101.459 145.238 99.4575 146.074 96.8581C146.911 94.2588 147.329 91.1665 147.329 87.5812C147.329 83.966 146.911 80.8737 146.074 78.3042C145.238 75.7049 144.057 73.7031 142.534 72.2989C141.01 70.8946 139.202 70.1925 137.111 70.1925C134.9 70.1925 133.003 70.8946 131.419 72.2989C129.836 73.7031 128.626 75.7049 127.789 78.3042C126.953 80.8737 126.534 83.966 126.534 87.5812C126.534 91.1665 126.953 94.2588 127.789 96.8581C128.626 99.4575 129.836 101.459 131.419 102.863C133.003 104.268 134.9 104.97 137.111 104.97ZM223.875 53.1624V71.0888H177.804V53.1624H223.875ZM186.588 122V51.1904C186.588 45.5137 187.604 40.808 189.635 37.0733C191.667 33.3387 194.535 30.5451 198.24 28.6927C201.945 26.8403 206.307 25.9141 211.326 25.9141C214.464 25.9141 217.511 26.1531 220.469 26.6312C223.457 27.1092 225.668 27.5275 227.102 27.886L223.516 45.6332C222.62 45.3643 221.574 45.1552 220.379 45.0058C219.184 44.8265 218.139 44.7369 217.242 44.7369C214.912 44.7369 213.343 45.2299 212.537 46.2158C211.73 47.2018 211.326 48.5015 211.326 50.1148V122H186.588ZM274.652 53.1624V71.0888H228.581V53.1624H274.652ZM237.365 122V51.1904C237.365 45.5137 238.381 40.808 240.412 37.0733C242.444 33.3387 245.312 30.5451 249.017 28.6927C252.722 26.8403 257.084 25.9141 262.103 25.9141C265.24 25.9141 268.288 26.1531 271.246 26.6312C274.233 27.1092 276.444 27.5275 277.879 27.886L274.293 45.6332C273.397 45.3643 272.351 45.1552 271.156 45.0058C269.961 44.8265 268.915 44.7369 268.019 44.7369C265.689 44.7369 264.12 45.2299 263.313 46.2158C262.507 47.2018 262.103 48.5015 262.103 50.1148V122H237.365ZM315.087 123.255C307.737 123.255 301.403 121.851 296.085 119.042C290.797 116.204 286.719 112.14 283.85 106.852C281.012 101.534 279.593 95.17 279.593 87.7604C279.593 80.6496 281.027 74.4351 283.895 69.1169C286.763 63.7987 290.812 59.6607 296.04 56.7028C301.269 53.745 307.439 52.266 314.549 52.266C319.748 52.266 324.454 53.0727 328.666 54.6861C332.879 56.2995 336.479 58.6449 339.467 61.7222C342.455 64.7697 344.755 68.4745 346.369 72.8367C347.982 77.1988 348.789 82.1136 348.789 87.5812V93.3176H287.301V79.6935H326.022C325.992 77.7216 325.485 75.9887 324.499 74.4949C323.542 72.9711 322.243 71.7909 320.6 70.9544C318.986 70.0879 317.149 69.6547 315.087 69.6547C313.085 69.6547 311.248 70.0879 309.575 70.9544C307.902 71.7909 306.557 72.9562 305.541 74.45C304.555 75.9439 304.033 77.6917 303.973 79.6935V94.3932C303.973 96.6042 304.436 98.5761 305.362 100.309C306.288 102.042 307.618 103.401 309.351 104.387C311.084 105.373 313.175 105.866 315.625 105.866C317.328 105.866 318.882 105.627 320.286 105.149C321.72 104.671 322.945 103.984 323.961 103.088C324.977 102.161 325.724 101.056 326.202 99.7712H348.789C348.012 104.552 346.175 108.705 343.277 112.23C340.378 115.726 336.539 118.445 331.759 120.387C327.008 122.299 321.451 123.255 315.087 123.255ZM391.868 123.255C384.519 123.255 378.185 121.851 372.866 119.042C367.578 116.204 363.5 112.14 360.632 106.852C357.793 101.534 356.374 95.17 356.374 87.7604C356.374 80.6496 357.808 74.4351 360.676 69.1169C363.545 63.7987 367.593 59.6607 372.822 56.7028C378.05 53.745 384.22 52.266 391.331 52.266C396.529 52.266 401.235 53.0727 405.448 54.6861C409.66 56.2995 413.261 58.6449 416.248 61.7222C419.236 64.7697 421.537 68.4745 423.15 72.8367C424.764 77.1988 425.57 82.1136 425.57 87.5812V93.3176H364.082V79.6935H402.804C402.774 77.7216 402.266 75.9887 401.28 74.4949C400.324 72.9711 399.024 71.7909 397.381 70.9544C395.767 70.0879 393.93 69.6547 391.868 69.6547C389.867 69.6547 388.029 70.0879 386.356 70.9544C384.683 71.7909 383.338 72.9562 382.323 74.45C381.337 75.9439 380.814 77.6917 380.754 79.6935V94.3932C380.754 96.6042 381.217 98.5761 382.143 100.309C383.07 102.042 384.399 103.401 386.132 104.387C387.865 105.373 389.956 105.866 392.406 105.866C394.109 105.866 395.663 105.627 397.067 105.149C398.501 104.671 399.726 103.984 400.742 103.088C401.758 102.161 402.505 101.056 402.983 99.7712H425.57C424.793 104.552 422.956 108.705 420.058 112.23C417.16 115.726 413.32 118.445 408.54 120.387C403.79 122.299 398.232 123.255 391.868 123.255Z" fill="white"/>
</svg>
